<svg id="Layer_1" data-name="Layer 1" xmlns="http://www.w3.org/2000/svg" viewBox="0 0 800 800"><defs><style>.cls-1{fill:#231f20;}</style></defs><path class="cls-1" d="M155.37,354.45,136,327.32h-.23v27.13H115.19v-84h27.47c8.74,0,15.44,1.13,19.86,3.06,9.08,4.09,15.44,14,15.44,25.88,0,13.28-8,24.18-20.89,26.45l22.82,28.6Zm-11.69-41.77c8.51,0,13.74-4,13.74-12,0-7.26-5.45-11.35-13.51-11.35h-8.18v23.38Z"/><path class="cls-1" d="M201,328.69c1,7.15,7,11.92,14.75,11.92,5.11,0,8.4-1.93,11.47-5.91h19.29c-6,13.74-17.48,21.8-30.76,21.8a33.36,33.36,0,0,1-33.37-33.37c0-18.17,14.53-33.83,33-33.83,18.84,0,33.26,14.87,33.26,34.39a24.17,24.17,0,0,1-.45,5ZM229.87,316c-1.48-6.47-7.15-10.78-14.42-10.78-6.81,0-12.71,4.09-14.19,10.78Z"/><path class="cls-1" d="M304.75,354.45v-6.81h-.23c-2.72,5.57-10.21,9-18.5,9-18.62,0-31.56-14.64-31.56-33.71,0-18.62,13.51-33.6,31.56-33.6,7.72,0,14.87,3.06,18.5,8.85h.23v-6.69h18.84v63Zm0-31.55a16,16,0,0,0-16-16c-8.62,0-15.43,7.15-15.43,16.24a15.72,15.72,0,1,0,31.44-.23Z"/><path class="cls-1" d="M380.22,315.75c-2.72-5.91-7.6-8.86-14.07-8.86-8.63,0-14.53,7.15-14.53,16,0,9.19,6.24,16,15,16,6.36,0,10.78-2.95,13.62-8.4H399.4c-3.74,15.78-17.25,26-33.37,26a33.43,33.43,0,0,1-33.37-33.72,33.09,33.09,0,0,1,33-33.48c16.57,0,30.08,10.44,33.6,26.45Z"/><path class="cls-1" d="M411.43,354.45V305.76h-9.3v-14.3h9.3v-21h18.85v21h9.08v14.3h-9.08v48.69Z"/><path class="cls-1" d="M446.87,284.76v-14.3h18.84v14.3Zm0,69.69v-63h18.84v63Z"/><path class="cls-1" d="M508.69,356.38c-19.19,0-33.94-14.19-33.94-33.48,0-19.53,15.09-33.49,33.94-33.49s33.94,14.19,33.94,33.26C542.63,342.42,527.64,356.38,508.69,356.38Zm15.09-33.48c0-8.4-6.35-15.89-15.21-15.89-8.28,0-15,7.26-15,15.89s6.58,15.89,15.1,15.89C517.54,338.79,523.78,331.3,523.78,322.9Z"/><path class="cls-1" d="M591.2,354.45v-35c0-8.51-3-12.48-9.88-12.48-7.6,0-10.78,4.2-10.78,12.71v34.73H551.69v-63h17.6v6.69h.23c4-6.47,9.53-8.85,17.14-8.85,11.35,0,23.38,6.36,23.38,25v40.18Z"/><path class="cls-1" d="M331.18,412.14,320.13,396.7H320v15.44H308.31V364.33H324c5,0,8.78.65,11.3,1.74C340.42,368.4,344,374,344,380.8c0,7.56-4.52,13.76-11.89,15.06l13,16.28Zm-6.65-23.78c4.84,0,7.81-2.26,7.81-6.85,0-4.13-3.1-6.46-7.68-6.46H320v13.31Z"/><path class="cls-1" d="M357.29,397.47c.58,4.07,4,6.79,8.4,6.79a7.55,7.55,0,0,0,6.53-3.36h11c-3.43,7.81-9.95,12.4-17.51,12.4a19,19,0,0,1-19-19c0-10.34,8.27-19.26,18.8-19.26,10.72,0,18.93,8.47,18.93,19.58a14,14,0,0,1-.26,2.84Zm16.41-7.23c-.84-3.69-4.07-6.14-8.2-6.14a8,8,0,0,0-8.08,6.14Z"/><path class="cls-1" d="M388.9,398.76V388.23h18.15v10.53Z"/><path class="cls-1" d="M412.33,372.47v-8.14h10.73v8.14Zm0,39.67V376.28h10.73v35.86Z"/><path class="cls-1" d="M474.45,412.14V392.82c0-5.62-1.81-7.69-5.5-7.69-4.07,0-5.94,2.46-5.94,7.17v19.84H452.29V392.37c0-4.65-1.68-7.24-5.37-7.24-4.2,0-6.07,2.72-6.07,7.69v19.32H430.12V376.28h10v3.81h.13c1.87-3.36,5.3-5,9.88-5s8.08,2.33,10.34,6.4a13,13,0,0,1,11.37-6.4c8,0,13.31,4.91,13.31,14.93v22.16Z"/><path class="cls-1" d="M518.91,412.14v-3.88h-.13c-1.55,3.17-5.82,5.1-10.53,5.1-10.6,0-18-8.33-18-19.18,0-10.6,7.68-19.13,18-19.13,4.39,0,8.46,1.75,10.53,5h.13v-3.81h10.72v35.86Zm0-18a9.1,9.1,0,0,0-9.11-9.11,9.14,9.14,0,1,0,9.11,9.11Z"/><path class="cls-1" d="M563.09,407.94c-1.61,3.42-5.62,5.36-10,5.36-10.47,0-18-8.07-18-18.86,0-11,7.69-19.32,18-19.32,4.65,0,8.2,1.74,9.95,4.52h.13v-3.36h10.72v32.05c0,4.84-.64,8.52-1.94,11-2.58,5-9.62,8.78-18.6,8.78-10.15,0-16.74-5.75-17.64-12.59h12.4c1.23,2.65,3.62,3.55,6.27,3.55,5.43,0,8.72-3.55,8.72-10.08Zm.07-13.57c0-5.23-3.56-9.24-8.79-9.24a8.75,8.75,0,0,0-8.59,8.92c0,5,3.42,9.24,8.59,9.24S563.16,399.54,563.16,394.37Z"/><path class="cls-1" d="M581,372.47v-8.14H591.7v8.14Zm0,39.67V376.28H591.7v35.86Z"/><path class="cls-1" d="M621.24,412.14v-19.9c0-4.85-1.68-7.11-5.62-7.11-4.33,0-6.13,2.39-6.13,7.24v19.77H598.76V376.28h10v3.81h.12c2.27-3.68,5.43-5,9.76-5,6.46,0,13.31,3.62,13.31,14.22v22.87Z"/><path class="cls-1" d="M647.53,397.47c.58,4.07,4,6.79,8.4,6.79a7.54,7.54,0,0,0,6.52-3.36h11c-3.42,7.81-9.94,12.4-17.5,12.4a19,19,0,0,1-19-19c0-10.34,8.27-19.26,18.8-19.26,10.73,0,18.93,8.47,18.93,19.58a13.28,13.28,0,0,1-.26,2.84Zm16.41-7.23c-.84-3.69-4.07-6.14-8.21-6.14a7.94,7.94,0,0,0-8.07,6.14Z"/><path class="cls-1" d="M706.86,412.14v-3.88h-.13c-2,3.3-5.62,5-10.73,5-10.85,0-18-8.33-18-19.19s7.3-19.06,17.77-19.06a13.94,13.94,0,0,1,10.53,4.27v-15h10.73v47.81Zm.06-18.09a9.08,9.08,0,0,0-18.15,0c0,5.43,3.81,9.24,9,9.24A9,9,0,0,0,706.92,394.05Z"/><path class="cls-1" d="M632.12,469.25V421.44h14.47c13.18,0,17.12,7.82,17.12,14.41,0,6.39-4.13,14.15-17.18,14.15H636.9v19.25Zm15.44-23.58c6.65,0,11.37-4,11.37-9.95,0-4.78-3-10-12.4-10H636.9v19.9Z"/><path class="cls-1" d="M668.33,469.25V433.91h4.53V439H673c1.55-3.68,4.26-5.68,10-6v4.79h-.07c-6.52.64-10,4.91-10,10.59v20.87Z"/><path class="cls-1" d="M683.41,451.81a18.48,18.48,0,1,1,18.41,18.28A18.7,18.7,0,0,1,683.41,451.81Zm32.43-.46a14.23,14.23,0,0,0-14-14.28c-7.68,0-13.89,6.66-13.89,14.67a14.22,14.22,0,0,0,14,14.28C709.83,466,715.84,459.43,715.84,451.35Z"/></svg>